<mxfile host="www.draw.io" modified="2019-11-13T11:08:56.181Z" agent="Mozilla/5.0 (X11; Linux x86_64) AppleWebKit/537.36 (KHTML, like Gecko) Chrome/78.0.3904.97 Safari/537.36" etag="IvF2LHDl6qJg2E5oJL3Z" version="12.2.4" type="github" pages="1">
  <diagram id="ly9STaorA2YmSNkArSBv" name="Page-1">
    <mxGraphModel dx="1948" dy="730" grid="1" gridSize="10" guides="1" tooltips="1" connect="1" arrows="1" fold="1" page="1" pageScale="1" pageWidth="850" pageHeight="1100" math="0" shadow="0">
      <root>
        <mxCell id="0"/>
        <mxCell id="1" parent="0"/>
        <mxCell id="K1ijSdW7afOyy3gnSMGL-20" value="" style="ellipse;whiteSpace=wrap;html=1;aspect=fixed;" vertex="1" parent="1">
          <mxGeometry x="380" y="140" width="440" height="440" as="geometry"/>
        </mxCell>
        <mxCell id="K1ijSdW7afOyy3gnSMGL-19" value="" style="ellipse;whiteSpace=wrap;html=1;" vertex="1" parent="1">
          <mxGeometry x="-10" y="140" width="360" height="400" as="geometry"/>
        </mxCell>
        <mxCell id="K1ijSdW7afOyy3gnSMGL-1" value="base datos empleados" style="shape=cylinder;whiteSpace=wrap;html=1;boundedLbl=1;backgroundOutline=1;" vertex="1" parent="1">
          <mxGeometry x="30" y="300" width="90" height="120" as="geometry"/>
        </mxCell>
        <mxCell id="K1ijSdW7afOyy3gnSMGL-2" value="suite" style="ellipse;whiteSpace=wrap;html=1;" vertex="1" parent="1">
          <mxGeometry x="590" y="230" width="120" height="80" as="geometry"/>
        </mxCell>
        <mxCell id="K1ijSdW7afOyy3gnSMGL-3" value="medicina" style="ellipse;whiteSpace=wrap;html=1;aspect=fixed;" vertex="1" parent="1">
          <mxGeometry x="610" y="350" width="100" height="100" as="geometry"/>
        </mxCell>
        <mxCell id="K1ijSdW7afOyy3gnSMGL-4" value="bla bla bla" style="ellipse;whiteSpace=wrap;html=1;aspect=fixed;" vertex="1" parent="1">
          <mxGeometry x="610" y="490" width="80" height="80" as="geometry"/>
        </mxCell>
        <mxCell id="K1ijSdW7afOyy3gnSMGL-5" value="base datos usuarios consumidores" style="shape=cylinder;whiteSpace=wrap;html=1;boundedLbl=1;backgroundOutline=1;" vertex="1" parent="1">
          <mxGeometry x="410" y="300" width="90" height="120" as="geometry"/>
        </mxCell>
        <mxCell id="K1ijSdW7afOyy3gnSMGL-7" value="" style="endArrow=classic;html=1;entryX=0.092;entryY=0.838;entryDx=0;entryDy=0;entryPerimeter=0;exitX=1;exitY=0.5;exitDx=0;exitDy=0;" edge="1" parent="1" source="K1ijSdW7afOyy3gnSMGL-5" target="K1ijSdW7afOyy3gnSMGL-2">
          <mxGeometry width="50" height="50" relative="1" as="geometry">
            <mxPoint x="90" y="640" as="sourcePoint"/>
            <mxPoint x="140" y="590" as="targetPoint"/>
          </mxGeometry>
        </mxCell>
        <mxCell id="K1ijSdW7afOyy3gnSMGL-8" value="" style="endArrow=classic;html=1;entryX=0;entryY=0.5;entryDx=0;entryDy=0;exitX=1;exitY=0.7;exitDx=0;exitDy=0;" edge="1" parent="1" source="K1ijSdW7afOyy3gnSMGL-5" target="K1ijSdW7afOyy3gnSMGL-3">
          <mxGeometry width="50" height="50" relative="1" as="geometry">
            <mxPoint x="450" y="530" as="sourcePoint"/>
            <mxPoint x="500" y="480" as="targetPoint"/>
          </mxGeometry>
        </mxCell>
        <mxCell id="K1ijSdW7afOyy3gnSMGL-9" value="" style="endArrow=classic;html=1;entryX=0;entryY=0.5;entryDx=0;entryDy=0;exitX=0.978;exitY=0.858;exitDx=0;exitDy=0;exitPerimeter=0;" edge="1" parent="1" source="K1ijSdW7afOyy3gnSMGL-5" target="K1ijSdW7afOyy3gnSMGL-4">
          <mxGeometry width="50" height="50" relative="1" as="geometry">
            <mxPoint x="480" y="500" as="sourcePoint"/>
            <mxPoint x="530" y="450" as="targetPoint"/>
          </mxGeometry>
        </mxCell>
        <mxCell id="K1ijSdW7afOyy3gnSMGL-10" value="LIME" style="text;html=1;strokeColor=none;fillColor=none;align=center;verticalAlign=middle;whiteSpace=wrap;rounded=0;" vertex="1" parent="1">
          <mxGeometry x="520" y="180" width="40" height="20" as="geometry"/>
        </mxCell>
        <mxCell id="K1ijSdW7afOyy3gnSMGL-11" value="SIGO" style="text;html=1;strokeColor=none;fillColor=none;align=center;verticalAlign=middle;whiteSpace=wrap;rounded=0;" vertex="1" parent="1">
          <mxGeometry x="140" y="230" width="40" height="20" as="geometry"/>
        </mxCell>
        <mxCell id="K1ijSdW7afOyy3gnSMGL-12" value="Sigo Intranet" style="ellipse;whiteSpace=wrap;html=1;" vertex="1" parent="1">
          <mxGeometry x="180" y="320" width="120" height="80" as="geometry"/>
        </mxCell>
        <mxCell id="K1ijSdW7afOyy3gnSMGL-14" value="" style="endArrow=classic;html=1;entryX=0;entryY=0.5;entryDx=0;entryDy=0;exitX=1;exitY=0.5;exitDx=0;exitDy=0;" edge="1" parent="1" source="K1ijSdW7afOyy3gnSMGL-1" target="K1ijSdW7afOyy3gnSMGL-12">
          <mxGeometry width="50" height="50" relative="1" as="geometry">
            <mxPoint x="30" y="640" as="sourcePoint"/>
            <mxPoint x="80" y="590" as="targetPoint"/>
          </mxGeometry>
        </mxCell>
        <mxCell id="K1ijSdW7afOyy3gnSMGL-15" value="Metodo de Login: SSO" style="rounded=1;whiteSpace=wrap;html=1;" vertex="1" parent="1">
          <mxGeometry x="455" y="220" width="120" height="60" as="geometry"/>
        </mxCell>
        <mxCell id="K1ijSdW7afOyy3gnSMGL-16" value="Empleado" style="shape=umlActor;verticalLabelPosition=bottom;labelBackgroundColor=#ffffff;verticalAlign=top;html=1;outlineConnect=0;" vertex="1" parent="1">
          <mxGeometry x="165" y="610" width="30" height="60" as="geometry"/>
        </mxCell>
        <mxCell id="K1ijSdW7afOyy3gnSMGL-21" value="Consumidores" style="shape=umlActor;verticalLabelPosition=bottom;labelBackgroundColor=#ffffff;verticalAlign=top;html=1;outlineConnect=0;" vertex="1" parent="1">
          <mxGeometry x="520" y="630" width="30" height="60" as="geometry"/>
        </mxCell>
        <mxCell id="K1ijSdW7afOyy3gnSMGL-22" value="" style="shape=flexArrow;endArrow=classic;html=1;" edge="1" parent="1">
          <mxGeometry width="50" height="50" relative="1" as="geometry">
            <mxPoint x="560" y="640" as="sourcePoint"/>
            <mxPoint x="610" y="590" as="targetPoint"/>
          </mxGeometry>
        </mxCell>
        <mxCell id="K1ijSdW7afOyy3gnSMGL-23" value="" style="shape=flexArrow;endArrow=classic;html=1;" edge="1" parent="1">
          <mxGeometry width="50" height="50" relative="1" as="geometry">
            <mxPoint x="180" y="600" as="sourcePoint"/>
            <mxPoint x="180" y="550" as="targetPoint"/>
          </mxGeometry>
        </mxCell>
      </root>
    </mxGraphModel>
  </diagram>
</mxfile>
